<?xml version="1.0" encoding="UTF-8" standalone="no"?>
<!-- Created with Inkscape (http://www.inkscape.org/) -->

<svg
   xmlns:dc="http://purl.org/dc/elements/1.1/"
   xmlns:cc="http://creativecommons.org/ns#"
   xmlns:rdf="http://www.w3.org/1999/02/22-rdf-syntax-ns#"
   xmlns:svg="http://www.w3.org/2000/svg"
   xmlns="http://www.w3.org/2000/svg"
   xmlns:sodipodi="http://sodipodi.sourceforge.net/DTD/sodipodi-0.dtd"
   xmlns:inkscape="http://www.inkscape.org/namespaces/inkscape"
   id="svg2"
   version="1.1"
   inkscape:version="0.48.5 r10040"
   width="512"
   height="512"
   sodipodi:docname="download_4-512.png">
  <metadata
     id="metadata8">
    <rdf:RDF>
      <cc:Work
         rdf:about="">
        <dc:format>image/svg+xml</dc:format>
        <dc:type
           rdf:resource="http://purl.org/dc/dcmitype/StillImage" />
        <dc:title></dc:title>
      </cc:Work>
    </rdf:RDF>
  </metadata>
  <defs
     id="defs6" />
  <sodipodi:namedview
     pagecolor="#ffffff"
     bordercolor="#666666"
     borderopacity="1"
     objecttolerance="10"
     gridtolerance="10"
     guidetolerance="10"
     inkscape:pageopacity="0"
     inkscape:pageshadow="2"
     inkscape:window-width="1920"
     inkscape:window-height="1014"
     id="namedview4"
     showgrid="false"
     inkscape:zoom="0.921875"
     inkscape:cx="507.08464"
     inkscape:cy="194.97909"
     inkscape:window-x="0"
     inkscape:window-y="27"
     inkscape:window-maximized="1"
     inkscape:current-layer="svg2" />
  <path
     style="fill:#010101"
     d="m 368.42283,401.39257 c 7.2564,-2.71497 14.77919,-9.60342 18.28552,-16.74364 2.48889,-5.06834 2.79427,-6.75924 2.74564,-15.20261 -0.0485,-8.41796 -0.38586,-10.1665 -2.96204,-15.35166 -4.70252,-9.46492 -12.94991,-15.65073 -23.5459,-17.66022 -3.19687,-0.60628 -41.0554,-0.98812 -97.96849,-0.98812 -90.09183,0 -92.94527,0.0578 -99.26684,2.01032 -8.25436,2.54951 -15.48028,8.80166 -19.40165,16.78707 -2.47659,5.04328 -2.79827,6.80099 -2.78229,15.20261 0.0154,8.11791 0.39506,10.30015 2.60937,15 4.1992,8.91278 12.44074,15.87759 21.37256,18.06169 1.65,0.40347 46.29562,0.77965 99.21249,0.83595 94.732,0.10078 96.29695,0.0708 101.70163,-1.95139 z m -87.33328,-77.21074 c 4.3962,-2.16171 14.60271,-11.8738 54.06928,-51.45011 30.57091,-30.65593 49.38745,-50.27187 50.63425,-52.7854 6.8599,-13.82944 3.95812,-30.03027 -7.22518,-40.33867 -7.02378,-6.4743 -12.42198,-8.51087 -22.55919,-8.51087 -13.17892,0 -15.29591,1.29897 -36.53432,22.41724 -9.91888,9.86276 -18.35638,17.9323 -18.75,17.9323 -0.39362,0 -0.71568,-20.16832 -0.71568,-44.8185 0,-38.22608 -0.23603,-45.61329 -1.60464,-50.22191 -6.96328,-23.447905 -36.23342,-31.748845 -54.3231,-15.4059 -4.53592,4.09792 -8.58742,10.32987 -10.14968,15.61205 -0.58335,1.97234 -0.99743,22.02139 -1.01377,49.08426 -0.0152,25.1625 -0.30447,45.75 -0.64284,45.75 -0.33837,0 -9.00584,-8.28751 -19.26106,-18.41668 -18.63488,-18.40586 -18.65012,-18.41799 -25.93573,-20.63093 -21.08393,-6.40404 -41.42118,6.98703 -43.69828,28.77315 -0.49339,4.72044 -0.14519,7.67482 1.58095,13.4141 l 2.2137,7.36036 49.66722,49.85848 c 57.30069,57.52133 55.40206,56.02396 70.24807,55.40151 6.78487,-0.28447 9.71508,-0.91749 14,-3.02448 z"
     id="path2989"
     inkscape:connector-curvature="0"
     sodipodi:nodetypes="sssssssssssssssssssssssssssssscsss" />
</svg>
